<svg xmlns="http://www.w3.org/2000/svg" xmlns:xlink="http://www.w3.org/1999/xlink" fill="none" version="1.1" width="36" height="22" viewBox="0 0 36 22"><g><rect x="0" y="0" width="36" height="22" rx="6" fill="#FAC11E" fill-opacity="1" style="mix-blend-mode:passthrough"/><g><path d="M16.9499998,13.5Q16.3800001,13.4899998,16.0199995,13.0600004Q15.3699999,12.3299999,15.3699999,10.02L15.3699999,9L14.3499999,9Q14.3199997,10.0300002,14.1099997,10.8699999Q14.75,11.3699999,15.29,11.9099998L14.6999998,12.8099995Q14.1999998,12.2799997,13.7399998,11.8900003Q13.25,12.9200001,12.3699999,13.6000004L11.5999999,12.9099998Q12.46,12.2700005,12.9000001,11.23Q12.5099998,10.940000099999999,12.059999900000001,10.6800003L12.6100001,9.8600001L13.1999998,10.220000299999999Q13.2999997,9.690000099999999,13.3299999,9L12.309999900000001,9L12.309999900000001,7.98L13.3299999,7.98L13.3299999,6.779999699999999L14.3499999,6.779999699999999L14.3499999,7.98L16.3899994,7.98L16.3899994,10.02Q16.3899994,11.6199999,16.5900002,12.1900005Q16.6799994,12.46,16.7399998,12.46Q16.8199997,12.46,16.8800001,12.0299997Q16.9299994,11.5799999,16.9299994,11.1400003L17.719999299999998,11.529999700000001Q17.6499996,12.8500004,17.3899994,13.2399998Q17.21,13.5,16.9499998,13.5ZM8.57999998,7.9300003L9.879999999999999,7.9300003L9.879999999999999,6.79L10.929999800000001,6.79L10.929999800000001,7.9300003L12.029999700000001,7.9300003L12.029999700000001,8.9500003L10.929999800000001,8.9500003L10.929999800000001,10.1500001L11.9499998,9.8499999L11.9499998,10.8499999Q11.6099999,10.9500003,10.929999800000001,11.1300001L10.929999800000001,12.4899998Q10.929999800000001,13.5100002,9.9699999,13.5100002L9.01,13.5100002L8.76999998,12.5100002Q9.28,12.5799999,9.5999999,12.5799999Q9.879999999999999,12.5799999,9.879999999999999,12.2299995L9.879999999999999,11.3800001Q8.91999996,11.5799999,8.56999999,11.6400003L8.31999999,10.6700001Q9.120000000000001,10.559999900000001,9.879999999999999,10.4000001L9.879999999999999,8.9500003L8.57999998,8.9500003L8.57999998,7.9300003ZM10.440000099999999,14.14Q9.92,15.28,9.22,16.119999999999997L8.35999998,15.49Q9.0699999,14.73,9.5699999,13.7200003L10.440000099999999,14.14ZM12.0799999,14.01Q12.3399997,14.75,12.6100001,15.83L11.559999900000001,16.08Q11.3899999,15.09,11.0999999,14.21L12.0799999,14.01ZM14.1500001,13.8699999Q14.5799999,14.79,14.899999600000001,15.81L13.8599997,16.059998999999998Q13.5899997,14.93,13.1700001,14.08L14.1500001,13.8699999ZM16.0500002,13.5500002Q16.9200001,14.63,17.4200001,15.48L16.5500002,16.09Q16.0599995,15.19,15.1999998,14.08L16.0500002,13.5500002ZM25.16,15.96L24.879999,14.98L25.75,15.01Q26.130001,15.01,26.130001,14.48L26.130001,8.1600003L22.41,8.1600003L22.41,7.2000003L27.15,7.2000003L27.15,14.77Q27.15,15.96,25.959999,15.96L25.16,15.96ZM18.83,8.4500003L19.85,8.4500003L19.85,16.05L18.83,16.05L18.83,8.4500003ZM20.6,6.6800003Q21.28,7.48,21.809998999999998,8.46L20.869999999999997,8.9500003Q20.33,7.9300003,19.65,7.110000100000001L20.6,6.6800003Z" fill="#1A1A2E" fill-opacity="1"/></g></g></svg>